<mxfile host="app.diagrams.net" modified="2022-05-08T17:14:20.127Z" agent="5.0 (Windows NT 10.0; Win64; x64) AppleWebKit/537.36 (KHTML, like Gecko) Chrome/101.0.4951.54 Safari/537.36" etag="pgwRHCYen-6Z8wZ-A5br" version="18.0.1" type="github">
  <diagram id="iWKNTOUgpukIIGYLg3hr" name="Page-1">
    <mxGraphModel dx="1422" dy="729" grid="1" gridSize="10" guides="1" tooltips="1" connect="1" arrows="1" fold="1" page="1" pageScale="1" pageWidth="827" pageHeight="1169" math="0" shadow="0">
      <root>
        <mxCell id="0" />
        <mxCell id="1" parent="0" />
        <mxCell id="EosamL_7nGbCQmjYH2bb-1" value="" style="html=1;shadow=0;dashed=0;align=center;verticalAlign=middle;shape=mxgraph.arrows2.arrow;dy=0;dx=10;notch=10;fontSize=14;fillColor=#1ba1e2;fontColor=#ffffff;strokeColor=none;" vertex="1" parent="1">
          <mxGeometry x="691" y="397" width="100" height="30" as="geometry" />
        </mxCell>
        <mxCell id="GADvh1nI1tQ5H140N6T1-27" value="" style="rounded=0;whiteSpace=wrap;html=1;fontSize=13;fontColor=#1A1A1A;strokeColor=#1A1A1A;strokeWidth=1;fillColor=none;" parent="1" vertex="1">
          <mxGeometry x="234" y="27.5" width="360" height="55" as="geometry" />
        </mxCell>
        <mxCell id="GADvh1nI1tQ5H140N6T1-3" value="FECIT en quelques dates" style="text;html=1;strokeColor=none;fillColor=none;align=center;verticalAlign=middle;whiteSpace=wrap;rounded=0;fontSize=20;" parent="1" vertex="1">
          <mxGeometry x="251" y="40" width="326" height="30" as="geometry" />
        </mxCell>
        <mxCell id="GADvh1nI1tQ5H140N6T1-11" value="&lt;font style=&quot;font-size: 12px&quot;&gt;L&#39;association&lt;br&gt;devient&lt;br&gt;FECIT&lt;br&gt;&lt;/font&gt;" style="shape=offPageConnector;whiteSpace=wrap;html=1;fontSize=14;strokeColor=#FF0000;strokeWidth=3;" parent="1" vertex="1">
          <mxGeometry x="513" y="290" width="80" height="96.5" as="geometry" />
        </mxCell>
        <mxCell id="GADvh1nI1tQ5H140N6T1-14" value="Août 2019" style="text;html=1;align=center;verticalAlign=middle;resizable=0;points=[];autosize=1;strokeColor=none;fillColor=none;fontSize=14;fontColor=#FF0000;fontStyle=1" parent="1" vertex="1">
          <mxGeometry x="513" y="260" width="80" height="20" as="geometry" />
        </mxCell>
        <mxCell id="GADvh1nI1tQ5H140N6T1-22" value="&lt;font color=&quot;#1a1a1a&quot;&gt;La compagnie FECITensemble&lt;/font&gt;" style="text;html=1;strokeColor=none;fillColor=none;align=left;verticalAlign=middle;whiteSpace=wrap;rounded=0;fontSize=13;fontColor=#FF0000;flipV=1;" parent="1" vertex="1">
          <mxGeometry x="38.5" y="220" width="261.5" height="30" as="geometry" />
        </mxCell>
        <mxCell id="GADvh1nI1tQ5H140N6T1-23" value="&lt;font color=&quot;#1a1a1a&quot;&gt;Projets artistiques organisés sous le nom FECIT&lt;/font&gt;" style="text;html=1;strokeColor=none;fillColor=none;align=left;verticalAlign=middle;whiteSpace=wrap;rounded=0;fontSize=13;fontColor=#FF0000;flipV=1;" parent="1" vertex="1">
          <mxGeometry x="38.5" y="198" width="351.5" height="30" as="geometry" />
        </mxCell>
        <mxCell id="GADvh1nI1tQ5H140N6T1-24" value="&lt;font color=&quot;#1a1a1a&quot;&gt;Travaux du centre d&#39;art et de la résidence&amp;nbsp;&lt;/font&gt;" style="text;html=1;strokeColor=none;fillColor=none;align=left;verticalAlign=middle;whiteSpace=wrap;rounded=0;fontSize=13;fontColor=#FF0000;flipV=1;" parent="1" vertex="1">
          <mxGeometry x="38.5" y="175" width="300" height="30" as="geometry" />
        </mxCell>
        <mxCell id="GADvh1nI1tQ5H140N6T1-25" value="&lt;font color=&quot;#1a1a1a&quot;&gt;Volonté de créer un centre d&#39;art&lt;/font&gt;" style="text;html=1;strokeColor=none;fillColor=none;align=left;verticalAlign=middle;whiteSpace=wrap;rounded=0;fontSize=13;fontColor=#FF0000;flipV=1;" parent="1" vertex="1">
          <mxGeometry x="38.5" y="153" width="188.5" height="30" as="geometry" />
        </mxCell>
        <mxCell id="GADvh1nI1tQ5H140N6T1-26" value="&lt;span style=&quot;color: rgb(26 , 26 , 26)&quot;&gt;Organisation d&#39;expositions de concerts sous le nom de Résonances&lt;/span&gt;" style="text;html=1;strokeColor=none;fillColor=none;align=left;verticalAlign=middle;whiteSpace=wrap;rounded=0;fontSize=13;fontColor=#FF0000;flipV=1;" parent="1" vertex="1">
          <mxGeometry x="38.5" y="130" width="400" height="30" as="geometry" />
        </mxCell>
        <mxCell id="eSUHsZaoonHUCtybN8jU-1" value="2014" style="text;html=1;align=center;verticalAlign=middle;resizable=0;points=[];autosize=1;strokeColor=none;fillColor=none;" parent="1" vertex="1">
          <mxGeometry x="1.5" y="440" width="40" height="20" as="geometry" />
        </mxCell>
        <mxCell id="eSUHsZaoonHUCtybN8jU-2" value="2022" style="text;html=1;align=center;verticalAlign=middle;resizable=0;points=[];autosize=1;strokeColor=none;fillColor=none;" parent="1" vertex="1">
          <mxGeometry x="760" y="440" width="40" height="20" as="geometry" />
        </mxCell>
        <mxCell id="eSUHsZaoonHUCtybN8jU-3" value="" style="html=1;shadow=0;dashed=0;align=center;verticalAlign=middle;shape=mxgraph.arrows2.arrow;dy=0;dx=10;notch=10;fontSize=14;fillColor=#1ba1e2;fontColor=#ffffff;strokeColor=none;" parent="1" vertex="1">
          <mxGeometry x="399" y="397" width="100" height="30" as="geometry" />
        </mxCell>
        <mxCell id="eSUHsZaoonHUCtybN8jU-4" value="" style="html=1;shadow=0;dashed=0;align=center;verticalAlign=middle;shape=mxgraph.arrows2.arrow;dy=0;dx=10;notch=10;fontSize=14;fillColor=#1ba1e2;fontColor=#ffffff;strokeColor=none;" parent="1" vertex="1">
          <mxGeometry x="496" y="397" width="100" height="30" as="geometry" />
        </mxCell>
        <mxCell id="eSUHsZaoonHUCtybN8jU-5" value="" style="html=1;shadow=0;dashed=0;align=center;verticalAlign=middle;shape=mxgraph.arrows2.arrow;dy=0;dx=10;notch=10;fontSize=14;fillColor=#1ba1e2;fontColor=#ffffff;strokeColor=none;" parent="1" vertex="1">
          <mxGeometry x="593" y="397" width="100" height="30" as="geometry" />
        </mxCell>
        <mxCell id="eSUHsZaoonHUCtybN8jU-7" value="" style="html=1;shadow=0;dashed=0;align=center;verticalAlign=middle;shape=mxgraph.arrows2.arrow;dy=0;dx=10;notch=10;fontSize=14;fillColor=#008a00;fontColor=#ffffff;strokeColor=none;" parent="1" vertex="1">
          <mxGeometry x="206" y="397" width="100" height="30" as="geometry" />
        </mxCell>
        <mxCell id="eSUHsZaoonHUCtybN8jU-9" value="" style="html=1;shadow=0;dashed=0;align=center;verticalAlign=middle;shape=mxgraph.arrows2.arrow;dy=0;dx=10;notch=10;fontSize=14;fillColor=#1ba1e2;fontColor=#ffffff;strokeColor=none;" parent="1" vertex="1">
          <mxGeometry x="302" y="397" width="100" height="30" as="geometry" />
        </mxCell>
        <mxCell id="eSUHsZaoonHUCtybN8jU-11" value="" style="html=1;shadow=0;dashed=0;align=center;verticalAlign=middle;shape=mxgraph.arrows2.arrow;dy=0;dx=10;notch=10;fontSize=14;fillColor=#60a917;fontColor=#ffffff;strokeColor=none;" parent="1" vertex="1">
          <mxGeometry x="14" y="397" width="100" height="30" as="geometry" />
        </mxCell>
        <mxCell id="eSUHsZaoonHUCtybN8jU-12" value="" style="html=1;shadow=0;dashed=0;align=center;verticalAlign=middle;shape=mxgraph.arrows2.arrow;dy=0;dx=10;notch=10;fontSize=14;fillColor=#60a917;fontColor=#ffffff;strokeColor=none;" parent="1" vertex="1">
          <mxGeometry x="110" y="397" width="100" height="30" as="geometry" />
        </mxCell>
        <mxCell id="eSUHsZaoonHUCtybN8jU-13" value="" style="group;flipV=1;" parent="1" vertex="1" connectable="0">
          <mxGeometry x="14" y="138" width="15" height="104" as="geometry" />
        </mxCell>
        <mxCell id="GADvh1nI1tQ5H140N6T1-16" value="" style="ellipse;whiteSpace=wrap;html=1;aspect=fixed;fontSize=14;fontColor=#000000;strokeColor=none;strokeWidth=3;fillColor=#fa6800;shadow=0;dashed=0;rotation=180;flipV=0;flipH=1;" parent="eSUHsZaoonHUCtybN8jU-13" vertex="1">
          <mxGeometry y="89" width="15" height="15" as="geometry" />
        </mxCell>
        <mxCell id="GADvh1nI1tQ5H140N6T1-17" value="" style="ellipse;whiteSpace=wrap;html=1;aspect=fixed;fontSize=14;fontColor=#ffffff;strokeColor=none;strokeWidth=3;fillColor=#e51400;shadow=0;dashed=0;rotation=180;flipV=0;flipH=1;" parent="eSUHsZaoonHUCtybN8jU-13" vertex="1">
          <mxGeometry y="67" width="15" height="15" as="geometry" />
        </mxCell>
        <mxCell id="GADvh1nI1tQ5H140N6T1-18" value="" style="ellipse;whiteSpace=wrap;html=1;aspect=fixed;fontSize=13;fontColor=#ffffff;strokeColor=none;strokeWidth=3;fillColor=#1ba1e2;rotation=180;flipV=0;flipH=1;" parent="eSUHsZaoonHUCtybN8jU-13" vertex="1">
          <mxGeometry y="45" width="15" height="15" as="geometry" />
        </mxCell>
        <mxCell id="GADvh1nI1tQ5H140N6T1-19" value="" style="ellipse;whiteSpace=wrap;html=1;aspect=fixed;fontSize=14;fontColor=#ffffff;strokeColor=none;strokeWidth=3;fillColor=#008a00;shadow=0;dashed=0;rotation=180;flipV=0;flipH=1;" parent="eSUHsZaoonHUCtybN8jU-13" vertex="1">
          <mxGeometry y="22" width="15" height="15" as="geometry" />
        </mxCell>
        <mxCell id="GADvh1nI1tQ5H140N6T1-20" value="" style="ellipse;whiteSpace=wrap;html=1;aspect=fixed;fontSize=14;fontColor=#ffffff;strokeColor=none;strokeWidth=3;fillColor=#60a917;shadow=0;dashed=0;rotation=180;flipV=0;flipH=1;" parent="eSUHsZaoonHUCtybN8jU-13" vertex="1">
          <mxGeometry width="15" height="15" as="geometry" />
        </mxCell>
        <mxCell id="eSUHsZaoonHUCtybN8jU-14" value="2015" style="text;html=1;align=center;verticalAlign=middle;resizable=0;points=[];autosize=1;strokeColor=none;fillColor=none;" parent="1" vertex="1">
          <mxGeometry x="96" y="440" width="40" height="20" as="geometry" />
        </mxCell>
        <mxCell id="eSUHsZaoonHUCtybN8jU-15" value="2016" style="text;html=1;align=center;verticalAlign=middle;resizable=0;points=[];autosize=1;strokeColor=none;fillColor=none;" parent="1" vertex="1">
          <mxGeometry x="191" y="440" width="40" height="20" as="geometry" />
        </mxCell>
        <mxCell id="eSUHsZaoonHUCtybN8jU-16" value="2017" style="text;html=1;align=center;verticalAlign=middle;resizable=0;points=[];autosize=1;strokeColor=none;fillColor=none;" parent="1" vertex="1">
          <mxGeometry x="286" y="440" width="40" height="20" as="geometry" />
        </mxCell>
        <mxCell id="eSUHsZaoonHUCtybN8jU-17" value="2018" style="text;html=1;align=center;verticalAlign=middle;resizable=0;points=[];autosize=1;strokeColor=none;fillColor=none;" parent="1" vertex="1">
          <mxGeometry x="381" y="440" width="40" height="20" as="geometry" />
        </mxCell>
        <mxCell id="eSUHsZaoonHUCtybN8jU-18" value="2019" style="text;html=1;align=center;verticalAlign=middle;resizable=0;points=[];autosize=1;strokeColor=none;fillColor=none;" parent="1" vertex="1">
          <mxGeometry x="476" y="440" width="40" height="20" as="geometry" />
        </mxCell>
        <mxCell id="eSUHsZaoonHUCtybN8jU-19" value="2020" style="text;html=1;align=center;verticalAlign=middle;resizable=0;points=[];autosize=1;strokeColor=none;fillColor=none;" parent="1" vertex="1">
          <mxGeometry x="570" y="440" width="40" height="20" as="geometry" />
        </mxCell>
        <mxCell id="eSUHsZaoonHUCtybN8jU-20" value="2021" style="text;html=1;align=center;verticalAlign=middle;resizable=0;points=[];autosize=1;strokeColor=none;fillColor=none;" parent="1" vertex="1">
          <mxGeometry x="665" y="440" width="40" height="20" as="geometry" />
        </mxCell>
        <mxCell id="eSUHsZaoonHUCtybN8jU-8" value="" style="html=1;shadow=0;dashed=0;align=center;verticalAlign=middle;shape=mxgraph.arrows2.arrow;dy=0;dx=10;notch=10;fontSize=14;fillColor=#e51400;fontColor=#ffffff;strokeColor=none;" parent="1" vertex="1">
          <mxGeometry x="631" y="382" width="160" height="30" as="geometry" />
        </mxCell>
        <mxCell id="eSUHsZaoonHUCtybN8jU-10" value="" style="html=1;shadow=0;dashed=0;align=center;verticalAlign=middle;shape=mxgraph.arrows2.arrow;dy=0;dx=10;notch=10;fontSize=14;fillColor=#fa6800;fontColor=#000000;strokeColor=none;" parent="1" vertex="1">
          <mxGeometry x="693" y="367" width="100" height="30" as="geometry" />
        </mxCell>
      </root>
    </mxGraphModel>
  </diagram>
</mxfile>
